<?xml version="1.0" encoding="UTF-8" standalone="no"?>
<svg width="128px" height="52px" viewBox="0 0 128 52" version="1.1" xmlns="http://www.w3.org/2000/svg" xmlns:xlink="http://www.w3.org/1999/xlink">
    <!-- Generator: sketchtool 41.2 (35397) - http://www.bohemiancoding.com/sketch -->
    <title>1A888119-8E76-4A8E-8693-EF02A45ECC7F</title>
    <desc>Created with sketchtool.</desc>
    <defs>
        <polygon id="path-1" points="10.5265258 0.0936470588 0.076586864 0.0936470588 0.076586864 8.47967059 10.5265258 8.47967059 10.5265258 0.0936470588"></polygon>
    </defs>
    <g id="Symbols" stroke="none" stroke-width="1" fill="none" fill-rule="evenodd">
        <g id="UI-Elements-/-Nav-/-Top-Nav" transform="translate(-41.000000, -24.000000)">
            <g id="Epic!-Logo" transform="translate(41.000000, 24.000000)">
                <path d="M74.0282494,16.1037176 C74.0282494,12.4540706 71.5158498,11.3226588 69.2810006,11.3226588 C68.6989025,11.3226588 65.9760903,11.3152471 65.623587,11.3150118 C64.6368858,11.3141882 63.7842235,12.0299529 63.7842235,13.1959529 L63.7842235,24.3566588 C63.7842235,24.9519529 63.7926305,26.1654824 63.7942883,26.6011294 C63.7955907,32.5210118 66.1548877,35.2476 67.3406342,36.3050118 C68.823587,37.5377176 70.5734335,38.5805412 72.5582031,38.8410118 C73.5237092,38.9677176 74.0155796,38.4790118 74.0338146,37.7911294 C74.0338146,37.7911294 74.0282494,16.3699529 74.0282494,16.1037176" id="Fill-1" fill="#19BEF0"></path>
                <g id="Group-5" transform="translate(63.585569, 0.024000)">
                    <mask id="mask-2" fill="white">
                        <use xlink:href="#path-1"></use>
                    </mask>
                    <g id="Clip-4"></g>
                    <path d="M10.5265258,4.28661176 C10.5265258,6.60237647 8.18723996,8.47967059 5.30161554,8.47967059 C2.41587271,8.47967059 0.076586864,6.60237647 0.076586864,4.28661176 C0.076586864,1.97084706 2.41587271,0.0935529412 5.30161554,0.0935529412 C8.18723996,0.0935529412 10.5265258,1.97084706 10.5265258,4.28661176" id="Fill-3" fill="#19BEF0" mask="url(#mask-2)"></path>
                </g>
                <path d="M125.665569,0.197941176 C125.311053,0.192764706 119.4999,0.192764706 119.278594,0.192764706 C116.813795,0.192764706 115.548359,1.65535294 115.073776,3.88229412 L111.017443,24.9468824 C110.70141,26.6348824 111.531338,27.7184118 113.309247,27.7144118 C114.412344,27.7119412 116.451582,27.2817059 118.264067,25.6546471 C120.539412,23.6121765 121.84333,20.9034706 122.648866,18.6592353 C123.338242,16.739 127.726831,3.04394118 127.726831,3.04394118 C128.367541,1.35441176 127.405469,0.223588235 125.665569,0.197941176" id="Fill-6" fill="#19BEF0"></path>
                <path d="M105.729516,31.3886706 C105.502644,31.0759647 104.998341,30.7330235 104.549571,30.7392588 C103.872509,30.7485529 103.482352,31.0171412 103.238193,31.1674941 C100.2029,33.0354941 98.070474,33.1440824 96.0109883,33.1984353 C89.8248348,33.3616118 84.5655859,26.8262 87.4634065,21.2278471 C88.2799541,19.6503176 90.0234065,18.3707882 92.9399356,18.4844353 C94.3621447,18.5398471 95.5375896,19.0150235 96.2890124,19.8113765 C96.2890124,19.8113765 97.0304888,20.6374941 96.8232733,22.2158471 C96.6757358,23.3403176 96.8232733,23.8536118 97.2661225,24.1958471 C97.9425924,24.7185529 99.1605462,25.0025529 100.935495,24.4579647 C103.061764,23.8054941 103.897257,23.2956118 104.35171,22.7047882 C105.205438,21.5950235 105.287969,19.9163176 104.856013,18.4771412 C103.929109,15.3893765 101.048931,13.1537294 98.1688718,12.2257294 C95.3457673,11.3159647 92.5906294,11.2230235 89.5858857,11.4786706 C80.4512326,12.2557294 75.5872326,19.0469059 76.9573417,27.2756118 C78.0774897,32.4809059 80.505227,34.6260824 81.7180892,35.5885529 C83.4375045,36.9530235 85.6972196,37.9245529 87.6018265,38.3206706 C93.4372529,39.5343176 101.367806,38.4196118 105.496961,33.6063176 C105.635262,33.4451412 105.772616,33.3016118 105.864857,33.1180824 C106.098596,32.6530235 106.219965,32.0644353 105.729516,31.3886706" id="Fill-8" fill="#19BEF0"></path>
                <path d="M118.757903,34.3771412 C118.757903,36.7811412 116.329455,38.7299647 113.333829,38.7299647 C110.338084,38.7299647 107.909636,36.7811412 107.909636,34.3771412 C107.909636,31.9731412 110.338084,30.0243176 113.333829,30.0243176 C116.329455,30.0243176 118.757903,31.9731412 118.757903,34.3771412" id="Fill-10" fill="#19BEF0"></path>
                <g id="Group-14" transform="translate(31.851989, 11.200471)" fill="#19BEF0">
                    <path d="M12.4513095,24.5281176 C11.5064067,25.2025882 11.5432318,26.4776471 12.5706657,26.9561176 C13.2027323,27.2505882 14.8622327,27.6823529 17.1340255,27.2505882 C26.0998276,25.5464706 28.7896037,17.5150588 29.1451856,14.4137647 C29.7626879,9.02929412 27.1444307,3.57964706 23.6312392,1.62411765 C22.300205,0.883176471 21.4983401,0.596352941 20.5154279,0.420117647 C15.5239016,-0.475176471 12.9804788,1.29705882 10.0185991,3.96917647 C8.10226975,-0.202705882 4.35001073,0.109058824 1.44236226,0.0981176471 C0.64760185,0.0951764706 0.00772025902,0.765882353 0.00772025902,1.57694118 L0.00772025902,35.5995294 C0.0125750231,38.01 1.36764625,39.4056471 3.83185347,39.95 C5.32676559,40.2803529 6.38309121,40.6321176 8.09113932,40.7034118 C9.32969621,40.7550588 10.3278831,39.9987059 10.3278831,38.4774118 C10.3278831,36.7368235 10.3278831,14.4772941 10.3322642,12.8943529 C10.3343956,12.1024706 10.4866694,11.2002353 10.7715611,10.5585882 C11.4003123,9.14258824 12.932168,7.88964706 14.5920237,7.84964706 C15.7949395,7.82058824 17.7593428,8.02070588 18.9262623,10.1063529 C19.4499848,11.0424706 20.1178109,13.9471765 19.0355537,16.99 C18.3882124,18.8098824 17.3288081,21.0465882 12.4513095,24.5281176" id="Fill-12"></path>
                </g>
                <path d="M9.56673895,22.5257176 C9.8941395,20.6578353 10.7868241,19.4486588 12.5073051,18.7337176 C13.7537954,18.2158353 16.057677,18.5551294 17.2778805,19.6486588 C19.220615,21.3896 19.0139915,23.8194824 17.450047,25.5717176 C15.9797639,27.2190118 14.0192681,27.9696 11.4313236,28.8332471 C9.78674265,26.7281882 9.25331064,24.3138353 9.56673895,22.5257176 M29.8221173,32.7038353 C29.9253698,32.4863059 29.9751016,32.2721882 29.9739175,32.0298353 C29.9696548,31.1425412 29.2421506,30.4267765 28.3492292,30.4310118 C28.1769443,30.4318353 28.0110535,30.4593647 27.855701,30.5097176 C27.855701,30.5097176 27.6232644,30.5593647 27.1538916,30.8520706 C24.5915234,32.4494824 22.5390239,32.9346588 20.7194346,33.0847765 C20.2148944,33.1091294 19.6815808,33.1059529 19.1158231,33.0663059 C17.3465576,32.9421882 14.8424466,31.9956 13.602232,31.0110118 C17.1431312,30.1333647 20.8456585,28.7712471 23.5306982,26.9504235 C29.1117824,23.1652471 29.5560525,16.0491294 23.5502357,12.9525412 C20.1031164,11.1751294 16.0106686,11.1111294 12.3090886,11.5520706 C3.55689621,12.5948941 -1.12120185,19.7751294 0.229961887,27.0546588 C1.30203589,32.8310118 5.58820056,36.7345412 11.2968111,38.1765412 C11.3093624,38.1800706 11.3208481,38.1840706 11.3336363,38.1874824 C12.0752311,38.3848941 12.858269,38.5292471 13.6675937,38.6224235 C13.6956566,38.6259529 13.7231275,38.6305412 13.7511904,38.6340706 C14.0061247,38.6653647 14.270887,38.6871294 14.5432274,38.7007765 C19.841788,39.0585412 26.036467,37.2693647 29.4243819,33.2801882 C29.4454586,33.2553647 29.6771848,33.0090118 29.8221173,32.7038353" id="Fill-15" fill="#19BEF0"></path>
            </g>
        </g>
    </g>
</svg>